<?xml version="1.0" encoding="UTF-8"?>
<svg xmlns="http://www.w3.org/2000/svg" viewBox="0 0 24 24" width="24" height="24">
  <rect width="24" height="24" rx="3" fill="#f8f8f8" stroke="#ced4da" stroke-width="1"/>
  <g fill="#333">
    <path d="M12,4c-4.418,0-8,3.582-8,8s3.582,8,8,8s8-3.582,8-8S16.418,4,12,4z M12,18c-3.314,0-6-2.686-6-6s2.686-6,6-6 s6,2.686,6,6S15.314,18,12,18z"/>
    <path d="M13,7.055v0.932c0.511,0.081,0.925,0.213,1.243,0.393c0.318,0.181,0.563,0.401,0.736,0.662 c0.173,0.261,0.259,0.545,0.259,0.854c0,0.33-0.118,0.608-0.355,0.835c-0.236,0.227-0.538,0.34-0.905,0.34 c-0.352,0-0.642-0.112-0.869-0.335c-0.227-0.224-0.372-0.52-0.436-0.888C12.578,9.669,12.301,9.5,12,9.5 c-0.352,0-0.64,0.286-0.641,0.638v0.124c0.025,0.694,0.285,1.236,0.781,1.624c0.496,0.39,1.12,0.619,1.872,0.689V13.5 c0,0.276,0.224,0.5,0.5,0.5s0.5-0.224,0.5-0.5v-0.917c0.51-0.075,0.937-0.205,1.279-0.391s0.608-0.417,0.796-0.692 c0.188-0.275,0.281-0.59,0.281-0.944c0-0.353-0.106-0.677-0.319-0.97c-0.213-0.292-0.511-0.537-0.896-0.733 c-0.385-0.196-0.827-0.333-1.326-0.409V7.055C14.827,7.012,14.5,6.665,14.5,6.25c0-0.276-0.224-0.5-0.5-0.5s-0.5,0.224-0.5,0.5 v0.888C12.991,7.22,12.511,7.349,12.089,7.55c-0.422,0.201-0.757,0.459-1.003,0.776S10.75,9.045,10.75,9.5 c0,0.332,0.12,0.621,0.359,0.866c0.239,0.245,0.544,0.368,0.913,0.368c0.306,0,0.576-0.11,0.809-0.331 c0.233-0.22,0.383-0.509,0.452-0.866C13.348,9.266,13.657,9,14.031,9C14.435,9,14.743,9.299,14.75,9.625 c0,0.255-0.09,0.459-0.271,0.615c-0.181,0.156-0.431,0.278-0.749,0.368c-0.318,0.09-0.675,0.159-1.07,0.208l0.012-0.044 c-0.459-0.212-0.784-0.491-0.973-0.837c-0.09-0.164-0.142-0.341-0.159-0.537C11.525,9.327,11.5,9.252,11.5,9.169 c0-0.277,0.082-0.521,0.247-0.732c0.165-0.211,0.383-0.377,0.657-0.498C12.677,7.819,12.988,7.733,13.341,7.68l0.145-0.03 C13.74,7.625,14,7.357,14,7.055C14,6.742,13.701,6.467,13.333,6.5C13.22,6.514,13.106,6.534,13,6.559V6.25 c0-0.276-0.224-0.5-0.5-0.5s-0.5,0.224-0.5,0.5v0.41c-0.495,0.16-0.912,0.416-1.252,0.768c-0.34,0.352-0.51,0.748-0.51,1.189 c0,0.428,0.122,0.805,0.365,1.131c0.243,0.326,0.577,0.573,1.002,0.742c0.134,0.053,0.264,0.098,0.394,0.136v0.698 c-0.446-0.075-0.764-0.277-0.954-0.605c-0.096-0.166-0.158-0.358-0.185-0.576C10.83,9.867,10.607,9.664,10.333,9.662 c-0.368-0.003-0.667,0.287-0.667,0.655c0,0.056,0.007,0.11,0.021,0.162c0.043,0.4,0.168,0.761,0.374,1.083 c0.316,0.494,0.75,0.862,1.302,1.106C11.581,12.768,11.791,12.842,12,12.9v0.6c0,0.276,0.224,0.5,0.5,0.5s0.5-0.224,0.5-0.5 V12.9c0.508-0.109,0.95-0.291,1.328-0.546c0.378-0.255,0.672-0.553,0.884-0.895c0.212-0.342,0.317-0.704,0.317-1.087 c0-0.528-0.176-0.978-0.528-1.351C14.65,8.65,14.128,8.397,13.5,8.245V7.66c0.203,0.025,0.373,0.076,0.512,0.153 C14.15,7.89,14.25,7.986,14.31,8.1c0.04,0.077,0.122,0.125,0.211,0.125c0.13,0,0.235-0.105,0.235-0.235 c0-0.035-0.008-0.069-0.022-0.099C14.613,7.66,14.451,7.46,14.204,7.295C13.956,7.13,13.598,7.035,13.13,7v-0.24 c0-0.183-0.067-0.341-0.202-0.476C12.794,6.15,12.635,6.083,12.453,6.083s-0.341,0.067-0.476,0.202 C11.843,6.42,11.776,6.578,11.776,6.76v0.208c-0.374,0.074-0.715,0.202-1.022,0.384c-0.307,0.182-0.55,0.41-0.73,0.684 C9.844,8.31,9.754,8.616,9.754,8.953c0,0.378,0.117,0.726,0.35,1.046C10.338,10.317,10.65,10.59,11.041,10.817 c0.258,0.15,0.511,0.266,0.757,0.348V11.8c-0.226-0.024-0.432-0.075-0.613-0.154c-0.182-0.078-0.334-0.175-0.456-0.289 C10.608,11.241,10.53,11.117,10.478,10.982c-0.07-0.179-0.27-0.267-0.449-0.197c-0.179,0.07-0.267,0.27-0.197,0.449 c0.104,0.266,0.259,0.493,0.466,0.681c0.207,0.188,0.459,0.337,0.756,0.447C11.351,12.472,11.675,12.548,12,12.592V12.9 c-0.452-0.08-0.834-0.231-1.145-0.455c-0.312-0.224-0.554-0.491-0.726-0.8c-0.172-0.309-0.258-0.629-0.258-0.962 c0-0.316,0.062-0.617,0.186-0.904c0.124-0.287,0.296-0.537,0.516-0.753c0.22-0.215,0.489-0.379,0.809-0.494 c0.162-0.058,0.331-0.102,0.507-0.132C11.939,8.388,12,8.348,12.063,8.311c0.063-0.037,0.126-0.071,0.189-0.103 c0.264-0.134,0.5-0.293,0.709-0.476c0.209-0.183,0.375-0.387,0.499-0.61c0.123-0.223,0.185-0.456,0.185-0.699 c0-0.243-0.062-0.476-0.185-0.699c-0.124-0.223-0.29-0.427-0.499-0.61C12.752,4.94,12.516,4.781,12.252,4.647 C11.988,4.513,11.699,4.41,11.385,4.341C11.07,4.272,10.733,4.238,10.372,4.238c-0.361,0-0.698,0.034-1.013,0.103 c-0.315,0.069-0.604,0.171-0.868,0.306c-0.264,0.135-0.5,0.293-0.709,0.476c-0.209,0.183-0.375,0.387-0.499,0.61 c-0.123,0.223-0.185,0.456-0.185,0.699c0,0.243,0.062,0.476,0.185,0.699c0.124,0.223,0.29,0.427,0.499,0.61 c0.209,0.183,0.445,0.341,0.709,0.476c0.264,0.135,0.553,0.237,0.868,0.306c0.315,0.069,0.652,0.103,1.013,0.103 c0.361,0,0.698-0.034,1.013-0.103c0.315-0.069,0.604-0.171,0.868-0.306c0.264-0.135,0.5-0.293,0.709-0.476 c0.209-0.183,0.375-0.387,0.499-0.61c0.123-0.223,0.185-0.456,0.185-0.699c0-0.243-0.062-0.476-0.185-0.699 c-0.124-0.223-0.29-0.427-0.499-0.61c-0.209-0.183-0.445-0.341-0.709-0.476c-0.264-0.135-0.553-0.237-0.868-0.306 C11.07,4.272,10.733,4.238,10.372,4.238"/>
  </g>
</svg> 