<svg xmlns="http://www.w3.org/2000/svg" viewBox="0 0 24 24" fill="white">
  <path d="M12 2c2.717 0 3.056.01 4.122.06 1.065.05 1.79.217 2.428.465.66.254 1.216.598 1.772 1.153a4.908 4.908 0 0 1 1.153 1.772c.247.637.415 1.363.465 2.428.047 1.066.06 1.405.06 4.122 0 2.717-.01 3.056-.06 4.122-.05 1.065-.218 1.79-.465 2.428a4.883 4.883 0 0 1-1.153 1.772 4.915 4.915 0 0 1-1.772 1.153c-.637.247-1.363.415-2.428.465-1.066.047-1.405.06-4.122.06-2.717 0-3.056-.01-4.122-.06-1.065-.05-1.79-.218-2.428-.465a4.89 4.89 0 0 1-1.772-1.153 4.904 4.904 0 0 1-1.153-1.772c-.248-.637-.415-1.363-.465-2.428C2.013 15.056 2 14.717 2 12c0-2.717.01-3.056.06-4.122.05-1.066.217-1.79.465-2.428a4.88 4.88 0 0 1 1.153-1.772A4.897 4.897 0 0 1 5.45 2.525c.638-.248 1.362-.415 2.428-.465C8.944 2.013 9.283 2 12 2zm0 1.802c-2.67 0-2.986.01-4.04.059-.976.045-1.505.207-1.858.344-.466.182-.8.398-1.15.748-.35.35-.566.683-.748 1.15-.137.353-.3.882-.344 1.857-.047 1.055-.059 1.37-.059 4.04 0 2.67.01 2.986.059 4.04.045.975.207 1.504.344 1.856.182.466.399.8.748 1.15.35.35.684.566 1.15.748.353.137.882.3 1.857.344 1.054.047 1.37.059 4.04.059 2.67 0 2.986-.01 4.04-.059.975-.045 1.504-.207 1.856-.344.466-.182.8-.398 1.15-.748.35-.35.566-.683.748-1.15.137-.352.3-.88.344-1.856.047-1.054.059-1.37.059-4.04 0-2.67-.01-2.986-.059-4.04-.045-.975-.207-1.504-.344-1.856a3.097 3.097 0 0 0-.748-1.15 3.098 3.098 0 0 0-1.15-.748c-.352-.137-.882-.3-1.856-.344-1.054-.047-1.37-.059-4.04-.059zm0 3.063A5.135 5.135 0 1 1 12 17.135 5.135 5.135 0 0 1 12 6.865zm0 8.468A3.333 3.333 0 1 0 12 8.667a3.333 3.333 0 0 0 0 6.666zm6.536-8.669a1.2 1.2 0 1 1-2.4 0 1.2 1.2 0 0 1 2.4 0z"/>
</svg> 